<svg width="33" height="39" viewBox="0 0 33 39" fill="none" xmlns="http://www.w3.org/2000/svg">
<path fill-rule="evenodd" clip-rule="evenodd" d="M18.8233 1.43C19.8737 0.379615 21.5767 0.379615 22.627 1.43L32.4631 11.2663L22.5823 20.6981C21.5078 21.7238 19.8053 21.6842 18.7796 20.6097C17.7539 19.5352 17.7935 17.8326 18.868 16.807L21.9018 13.9112H15.3458C10.0972 13.9112 5.8424 18.166 5.8424 23.4146C5.8424 28.6632 10.0972 32.918 15.3458 32.918H28.6148C30.1001 32.918 31.3047 34.1221 31.3047 35.6079C31.3047 37.0931 30.1001 38.2972 28.6148 38.2972H15.3458C7.12633 38.2972 0.463135 31.6342 0.463135 23.4146C0.463135 15.1951 7.12633 8.53185 15.3458 8.53185H22.1214L18.8233 5.23376C17.7729 4.18337 17.7729 2.48039 18.8233 1.43Z" fill="#1F8459"/>
</svg>
